# xmcd
# 
# Track frame offsets:
#     150
#     15760
#     30510
#     47614
#     59103
#     72841
#     92355
#     109425
#     125278
#     141190
#     151839
# 
# Disc length: 2206
# 
# Revision: 0
# Processed by: cddbd v1.5.2PL0 Copyright (c) Steve Scherf et al.
# Submitted via: fre:ac v1.0.17
# 
DISCID=87089c0b
DTITLE=Rudy Parris - Modern Day Cowboy
DYEAR=1997
DGENRE=Country
TTITLE0=Up And Coming Fool
TTITLE1=One Way Music Road
TTITLE2=Modern Day Cowboy
TTITLE3=If That Woman Don't Kill Me
TTITLE4=Long Legged Woman
TTITLE5=Where'd Our Promise Go
TTITLE6=Looking Back
TTITLE7=Stuck In A Long Goodbye
TTITLE8=Half The Battle
TTITLE9=High Highs And Low Lows
TTITLE10=Don't Grow Up Too Soon
EXTD=
EXTT0=
EXTT1=
EXTT2=
EXTT3=
EXTT4=
EXTT5=
EXTT6=
EXTT7=
EXTT8=
EXTT9=
EXTT10=
PLAYORDER=
